<svg width="57" height="57" viewBox="0 0 57 57" fill="none" xmlns="http://www.w3.org/2000/svg">
<g clip-path="url(#clip0_30_76)">
<path d="M57 28.5C57 36.0587 53.9973 43.3078 48.6525 48.6525C43.3078 53.9973 36.0587 57 28.5 57C20.9413 57 13.6922 53.9973 8.34746 48.6525C3.00267 43.3078 0 36.0587 0 28.5C0 20.9413 3.00267 13.6922 8.34746 8.34746C13.6922 3.00267 20.9413 0 28.5 0C36.0587 0 43.3078 3.00267 48.6525 8.34746C53.9973 13.6922 57 20.9413 57 28.5ZM30.2812 16.0312C30.2812 15.5588 30.0936 15.1058 29.7595 14.7717C29.4255 14.4377 28.9724 14.25 28.5 14.25C28.0276 14.25 27.5745 14.4377 27.2405 14.7717C26.9064 15.1058 26.7188 15.5588 26.7188 16.0312V36.6688L19.0736 29.0201C18.7392 28.6857 18.2855 28.4977 17.8125 28.4977C17.3395 28.4977 16.8858 28.6857 16.5514 29.0201C16.2169 29.3546 16.029 29.8082 16.029 30.2812C16.029 30.7543 16.2169 31.2079 16.5514 31.5424L27.2389 42.2299C27.4043 42.3958 27.6009 42.5274 27.8173 42.6172C28.0337 42.707 28.2657 42.7532 28.5 42.7532C28.7343 42.7532 28.9663 42.707 29.1827 42.6172C29.3991 42.5274 29.5957 42.3958 29.7611 42.2299L40.4486 31.5424C40.7831 31.2079 40.971 30.7543 40.971 30.2812C40.971 29.8082 40.7831 29.3546 40.4486 29.0201C40.1142 28.6857 39.6605 28.4977 39.1875 28.4977C38.7145 28.4977 38.2608 28.6857 37.9264 29.0201L30.2812 36.6688V16.0312Z" fill="#F2F3AE"/>
</g>
<defs>
<clipPath id="clip0_30_76">
<rect width="57" height="57" fill="white"/>
</clipPath>
</defs>
</svg>
