<svg width="37" height="37" viewBox="0 0 37 37" fill="none" xmlns="http://www.w3.org/2000/svg">
<path d="M1.21875 0C0.895517 0 0.585524 0.128404 0.356964 0.356964C0.128404 0.585524 0 0.895517 0 1.21875C0 1.54198 0.128404 1.85198 0.356964 2.08054C0.585524 2.3091 0.895517 2.4375 1.21875 2.4375H3.92438L4.90181 6.35456L8.55319 25.818C8.60547 26.0973 8.75369 26.3495 8.97222 26.5311C9.19075 26.7127 9.46587 26.8122 9.75 26.8125H12.1875C10.8946 26.8125 9.65459 27.3261 8.74035 28.2404C7.82611 29.1546 7.3125 30.3946 7.3125 31.6875C7.3125 32.9804 7.82611 34.2204 8.74035 35.1346C9.65459 36.0489 10.8946 36.5625 12.1875 36.5625C13.4804 36.5625 14.7204 36.0489 15.6346 35.1346C16.5489 34.2204 17.0625 32.9804 17.0625 31.6875C17.0625 30.3946 16.5489 29.1546 15.6346 28.2404C14.7204 27.3261 13.4804 26.8125 12.1875 26.8125H29.25C27.9571 26.8125 26.7171 27.3261 25.8029 28.2404C24.8886 29.1546 24.375 30.3946 24.375 31.6875C24.375 32.9804 24.8886 34.2204 25.8029 35.1346C26.7171 36.0489 27.9571 36.5625 29.25 36.5625C30.5429 36.5625 31.7829 36.0489 32.6971 35.1346C33.6114 34.2204 34.125 32.9804 34.125 31.6875C34.125 30.3946 33.6114 29.1546 32.6971 28.2404C31.7829 27.3261 30.5429 26.8125 29.25 26.8125H31.6875C31.9716 26.8122 32.2467 26.7127 32.4653 26.5311C32.6838 26.3495 32.832 26.0973 32.8843 25.818L36.5406 6.318C36.5735 6.1421 36.5673 5.96111 36.5224 5.78789C36.4775 5.61466 36.3949 5.45345 36.2807 5.31571C36.1665 5.17797 36.0233 5.06707 35.8614 4.99091C35.6994 4.91474 35.5227 4.87517 35.3438 4.875H7.04438L6.05719 0.923812C5.9914 0.660036 5.8393 0.425828 5.62509 0.258435C5.41088 0.0910423 5.14686 7.5103e-05 4.875 0H1.21875ZM14.625 31.6875C14.625 32.334 14.3682 32.954 13.9111 33.4111C13.454 33.8682 12.834 34.125 12.1875 34.125C11.541 34.125 10.921 33.8682 10.4639 33.4111C10.0068 32.954 9.75 32.334 9.75 31.6875C9.75 31.041 10.0068 30.421 10.4639 29.9639C10.921 29.5068 11.541 29.25 12.1875 29.25C12.834 29.25 13.454 29.5068 13.9111 29.9639C14.3682 30.421 14.625 31.041 14.625 31.6875ZM31.6875 31.6875C31.6875 32.334 31.4307 32.954 30.9736 33.4111C30.5165 33.8682 29.8965 34.125 29.25 34.125C28.6035 34.125 27.9835 33.8682 27.5264 33.4111C27.0693 32.954 26.8125 32.334 26.8125 31.6875C26.8125 31.041 27.0693 30.421 27.5264 29.9639C27.9835 29.5068 28.6035 29.25 29.25 29.25C29.8965 29.25 30.5165 29.5068 30.9736 29.9639C31.4307 30.421 31.6875 31.041 31.6875 31.6875ZM27.6754 13.0504L20.3629 20.3629C20.2497 20.4764 20.1152 20.5664 19.9671 20.6279C19.819 20.6893 19.6603 20.7209 19.5 20.7209C19.3397 20.7209 19.181 20.6893 19.0329 20.6279C18.8848 20.5664 18.7503 20.4764 18.6371 20.3629L14.9809 16.7066C14.8676 16.5933 14.7777 16.4588 14.7163 16.3107C14.655 16.1627 14.6235 16.004 14.6235 15.8438C14.6235 15.6835 14.655 15.5248 14.7163 15.3768C14.7777 15.2287 14.8676 15.0942 14.9809 14.9809C15.0942 14.8676 15.2287 14.7777 15.3768 14.7163C15.5248 14.655 15.6835 14.6235 15.8438 14.6235C16.004 14.6235 16.1627 14.655 16.3107 14.7163C16.4588 14.7777 16.5933 14.8676 16.7066 14.9809L19.5 17.7767L25.9496 11.3246C26.0629 11.2113 26.1975 11.1214 26.3455 11.0601C26.4936 10.9988 26.6522 10.9672 26.8125 10.9672C26.9728 10.9672 27.1314 10.9988 27.2795 11.0601C27.4275 11.1214 27.5621 11.2113 27.6754 11.3246C27.7887 11.4379 27.8786 11.5725 27.9399 11.7205C28.0012 11.8686 28.0328 12.0272 28.0328 12.1875C28.0328 12.3478 28.0012 12.5064 27.9399 12.6545C27.8786 12.8025 27.7887 12.9371 27.6754 13.0504Z" fill="#D58936"/>
</svg>
