<svg width="26" height="26" viewBox="0 0 26 26" fill="none" xmlns="http://www.w3.org/2000/svg">
<path d="M0.560249 2.06475C0.461462 1.96596 0.383101 1.84869 0.329637 1.71961C0.276174 1.59054 0.248657 1.45221 0.248657 1.3125C0.248657 1.17279 0.276174 1.03446 0.329637 0.905385C0.383101 0.776313 0.461462 0.659036 0.560249 0.560249C0.659036 0.461462 0.776313 0.383101 0.905385 0.329637C1.03446 0.276174 1.17279 0.248657 1.3125 0.248657C1.45221 0.248657 1.59054 0.276174 1.71961 0.329637C1.84869 0.383101 1.96596 0.461462 2.06475 0.560249L13 11.4976L23.9352 0.560249C24.034 0.461462 24.1513 0.383101 24.2804 0.329637C24.4095 0.276174 24.5478 0.248657 24.6875 0.248657C24.8272 0.248657 24.9655 0.276174 25.0946 0.329637C25.2237 0.383101 25.341 0.461462 25.4397 0.560249C25.5385 0.659036 25.6169 0.776313 25.6704 0.905385C25.7238 1.03446 25.7513 1.17279 25.7513 1.3125C25.7513 1.45221 25.7238 1.59054 25.6704 1.71961C25.6169 1.84869 25.5385 1.96596 25.4397 2.06475L14.5024 13L25.4397 23.9352C25.5385 24.034 25.6169 24.1513 25.6704 24.2804C25.7238 24.4095 25.7513 24.5478 25.7513 24.6875C25.7513 24.8272 25.7238 24.9655 25.6704 25.0946C25.6169 25.2237 25.5385 25.341 25.4397 25.4397C25.341 25.5385 25.2237 25.6169 25.0946 25.6704C24.9655 25.7238 24.8272 25.7513 24.6875 25.7513C24.5478 25.7513 24.4095 25.7238 24.2804 25.6704C24.1513 25.6169 24.034 25.5385 23.9352 25.4397L13 14.5024L2.06475 25.4397C1.96596 25.5385 1.84869 25.6169 1.71961 25.6704C1.59054 25.7238 1.45221 25.7513 1.3125 25.7513C1.17279 25.7513 1.03446 25.7238 0.905385 25.6704C0.776313 25.6169 0.659036 25.5385 0.560249 25.4397C0.461462 25.341 0.383101 25.2237 0.329637 25.0946C0.276174 24.9655 0.248657 24.8272 0.248657 24.6875C0.248657 24.5478 0.276174 24.4095 0.329637 24.2804C0.383101 24.1513 0.461462 24.034 0.560249 23.9352L11.4976 13L0.560249 2.06475Z" fill="#D58936"/>
</svg>
