<svg width="33" height="32" viewBox="0 0 33 32" fill="none" xmlns="http://www.w3.org/2000/svg">
<g clip-path="url(#clip0_12_38)">
<path fill-rule="evenodd" clip-rule="evenodd" d="M1.02086 11.9166C0.868108 11.9167 0.717318 11.9501 0.579603 12.0144C0.441889 12.0787 0.32076 12.1722 0.225147 12.2881C0.129533 12.404 0.0618717 12.5392 0.02715 12.6839C-0.00757167 12.8287 -0.00846847 12.9791 0.0245257 13.1242L3.39736 27.8889C3.64912 28.9917 4.27991 29.978 5.18561 30.685C6.09131 31.392 7.21777 31.7775 8.37902 31.7777H20.2044C21.3656 31.7775 22.4921 31.392 23.3978 30.685C24.3035 29.978 24.9343 28.9917 25.186 27.8889L25.4535 26.7171C27.0152 27.0013 28.6293 26.684 29.9551 25.8322C31.2808 24.9804 32.2145 23.6608 32.5589 22.152C32.9033 20.6432 32.6316 19.0633 31.8011 17.7457C30.9705 16.4281 29.6462 15.476 28.1076 15.0904L28.5589 13.1242C28.5918 12.9791 28.591 12.8287 28.5562 12.6839C28.5215 12.5392 28.4538 12.404 28.3582 12.2881C28.2626 12.1722 28.1415 12.0787 28.0038 12.0144C27.8661 11.9501 27.7153 11.9167 27.5625 11.9166H1.02086ZM26.5417 24.8263C26.3256 24.8264 26.1099 24.8098 25.8965 24.7767L27.6666 17.0348C28.6109 17.3009 29.4249 17.8892 29.9593 18.6919C30.4936 19.4946 30.7125 20.4579 30.5758 21.4049C30.439 22.3519 29.9558 23.2192 29.2148 23.8477C28.4739 24.4762 27.5248 24.8236 26.5417 24.8263Z" fill="#D58936"/>
<path d="M8.98333 1.58883L8.97721 1.59677L8.94862 1.63451C8.80007 1.83336 8.66109 2.03881 8.53212 2.2502C8.42257 2.41966 8.32633 2.59693 8.24425 2.78049C8.19117 2.89966 8.17483 2.96322 8.16871 2.98506V2.99301C8.19225 3.16858 8.25572 3.33684 8.3545 3.48556C8.50762 3.74971 8.71792 4.02578 8.98333 4.36938L9.00375 4.39321C9.24467 4.70702 9.53458 5.08239 9.75917 5.47167C9.98783 5.86889 10.2083 6.37535 10.2083 6.95132C10.2083 7.32471 10.0756 7.68221 9.96537 7.93246C9.84736 8.19875 9.70952 8.4563 9.55296 8.70307C9.39279 8.96351 9.22042 9.21667 9.03642 9.46176L8.99967 9.51141L8.98946 9.5273L8.98537 9.53127C8.8232 9.74224 8.58152 9.88189 8.3135 9.91951C8.04548 9.95713 7.77307 9.88963 7.55621 9.73187C7.33934 9.57411 7.19579 9.33901 7.15711 9.07828C7.11844 8.81755 7.18783 8.55256 7.35 8.3416L7.35612 8.33365L7.38471 8.29592C7.53326 8.09706 7.67224 7.89161 7.80121 7.68022C7.91077 7.51077 8.007 7.3335 8.08908 7.14993C8.14217 7.03077 8.1585 6.96721 8.16462 6.94536C8.14289 6.7672 8.08007 6.59611 7.98087 6.44486C7.79136 6.13673 7.58058 5.84144 7.35 5.56105L7.32958 5.53721C7.05374 5.19423 6.80139 4.83396 6.57417 4.45876C6.29609 4.01134 6.14138 3.5017 6.125 2.9791C6.125 2.60572 6.25771 2.24822 6.36796 1.99797C6.48842 1.72388 6.64154 1.45377 6.78038 1.22736C6.94256 0.968155 7.11487 0.715072 7.29692 0.468664L7.34796 0.399151C7.51013 0.188188 7.75181 0.048536 8.01983 0.0109168C8.28785 -0.0267024 8.56026 0.0407926 8.77712 0.198554C8.99399 0.356315 9.13755 0.591419 9.17622 0.852147C9.21489 1.11287 9.14551 1.37787 8.98333 1.58883ZM15.1083 1.58883L15.1022 1.59677L15.0736 1.63451C14.9251 1.83336 14.7861 2.03881 14.6571 2.2502C14.5476 2.41966 14.4513 2.59693 14.3692 2.78049C14.3162 2.89966 14.2998 2.96322 14.2937 2.98506V2.99301C14.3173 3.16858 14.3807 3.33684 14.4795 3.48556C14.6326 3.74971 14.8429 4.02578 15.1083 4.36938L15.1287 4.39321C15.3697 4.70702 15.6596 5.08239 15.8842 5.47167C16.1128 5.86889 16.3333 6.37535 16.3333 6.95132C16.3333 7.32471 16.2006 7.68221 16.0904 7.93246C15.9724 8.19875 15.8345 8.4563 15.678 8.70307C15.5178 8.96351 15.3454 9.21667 15.1614 9.46176L15.1247 9.51141L15.1145 9.5273L15.1104 9.53127C14.9482 9.74224 14.7065 9.88189 14.4385 9.91951C14.1705 9.95713 13.8981 9.88963 13.6812 9.73187C13.4643 9.57411 13.3208 9.33901 13.2821 9.07828C13.2434 8.81755 13.3128 8.55256 13.475 8.3416L13.4811 8.33365L13.5097 8.29592C13.6583 8.09706 13.7972 7.89161 13.9262 7.68022C14.0358 7.51077 14.132 7.3335 14.2141 7.14993C14.2672 7.03077 14.2835 6.96721 14.2896 6.94536C14.2679 6.7672 14.2051 6.59611 14.1059 6.44486C13.9164 6.13673 13.7056 5.84144 13.475 5.56105L13.4546 5.53721C13.1787 5.19423 12.9264 4.83396 12.6992 4.45876C12.4211 4.01134 12.2664 3.5017 12.25 2.9791C12.25 2.60572 12.3827 2.24822 12.493 1.99797C12.6134 1.72388 12.7665 1.45377 12.9054 1.22736C13.0676 0.968155 13.2399 0.715072 13.4219 0.468664L13.473 0.399151C13.6351 0.188188 13.8768 0.048536 14.1448 0.0109168C14.4129 -0.0267024 14.6853 0.0407926 14.9021 0.198554C15.119 0.356315 15.2625 0.591419 15.3012 0.852147C15.3399 1.11287 15.2705 1.37787 15.1083 1.58883ZM21.2333 1.58883L21.2272 1.59677L21.1986 1.63451C21.0501 1.83336 20.9111 2.03881 20.7821 2.2502C20.6726 2.41966 20.5763 2.59693 20.4942 2.78049C20.4412 2.89966 20.4248 2.96322 20.4187 2.98506V2.99301C20.4423 3.16858 20.5057 3.33684 20.6045 3.48556C20.7576 3.74971 20.9679 4.02578 21.2333 4.36938L21.2537 4.39321C21.4947 4.70702 21.7846 5.08239 22.0092 5.47167C22.2378 5.86889 22.4583 6.37535 22.4583 6.95132C22.4583 7.32471 22.3256 7.68221 22.2154 7.93246C22.0974 8.19875 21.9595 8.4563 21.803 8.70307C21.6434 8.96347 21.4718 9.21663 21.2885 9.46176L21.2497 9.51141L21.2395 9.5273L21.2354 9.53127C21.0732 9.74224 20.8315 9.88189 20.5635 9.91951C20.2955 9.95713 20.0231 9.88963 19.8062 9.73187C19.5893 9.57411 19.4458 9.33901 19.4071 9.07828C19.3684 8.81755 19.4378 8.55256 19.6 8.3416L19.6061 8.33365L19.6347 8.29592C19.7833 8.09706 19.9222 7.89161 20.0512 7.68022C20.1608 7.51077 20.257 7.3335 20.3391 7.14993C20.3922 7.03077 20.4085 6.96721 20.4146 6.94536C20.3929 6.7672 20.3301 6.59611 20.2309 6.44486C20.0414 6.13673 19.8306 5.84144 19.6 5.56105L19.5796 5.53721C19.3037 5.19423 19.0514 4.83396 18.8242 4.45876C18.5461 4.01134 18.3914 3.5017 18.375 2.9791C18.375 2.60572 18.5077 2.24822 18.618 1.99797C18.7384 1.72388 18.8915 1.45377 19.0304 1.22736C19.1926 0.968155 19.3649 0.715072 19.5469 0.468664L19.598 0.399151C19.7601 0.188188 20.0018 0.048536 20.2698 0.0109168C20.5379 -0.0267024 20.8103 0.0407926 21.0271 0.198554C21.244 0.356315 21.3875 0.591419 21.4262 0.852147C21.4649 1.11287 21.3955 1.37787 21.2333 1.58883Z" fill="#D58936"/>
</g>
<defs>
<clipPath id="clip0_12_38">
<rect width="32.6667" height="31.7777" fill="white"/>
</clipPath>
</defs>
</svg>
