<svg width="27" height="28" viewBox="0 0 27 28" fill="none" xmlns="http://www.w3.org/2000/svg">
<path d="M10.3846 27.0001V19.9905C10.3846 19.5005 10.9038 19.0006 11.4231 19.0006H15.5769C16.0962 19.0006 16.6154 19.5005 16.6154 20.0005V27.0001C16.6154 27.2653 16.7248 27.5196 16.9195 27.7071C17.1143 27.8946 17.3784 28 17.6538 28H25.9615C26.237 28 26.5011 27.8946 26.6958 27.7071C26.8906 27.5196 27 27.2653 27 27.0001V13.001C27.0002 12.8696 26.9736 12.7394 26.9216 12.6179C26.8695 12.4964 26.7931 12.386 26.6968 12.293L23.8846 9.58718V3.0016C23.8846 2.7364 23.7752 2.48206 23.5805 2.29453C23.3857 2.10701 23.1216 2.00166 22.8462 2.00166H20.7692C20.4938 2.00166 20.2297 2.10701 20.0349 2.29453C19.8402 2.48206 19.7308 2.7364 19.7308 3.0016V5.58743L14.2352 0.293769C14.1388 0.200648 14.0242 0.126767 13.898 0.0763576C13.7718 0.0259479 13.6366 0 13.5 0C13.3634 0 13.2282 0.0259479 13.102 0.0763576C12.9758 0.126767 12.8612 0.200648 12.7648 0.293769L0.303232 12.293C0.206859 12.386 0.130474 12.4964 0.0784436 12.6179C0.0264132 12.7394 -0.000242065 12.8696 1.65634e-06 13.001V27.0001C1.65634e-06 27.2653 0.109411 27.5196 0.30416 27.7071C0.498909 27.8946 0.763046 28 1.03846 28H9.34615C9.62157 28 9.88571 27.8946 10.0805 27.7071C10.2752 27.5196 10.3846 27.2653 10.3846 27.0001Z" fill="#D58936"/>
</svg>
