<svg width="25" height="32" viewBox="0 0 25 32" fill="none" xmlns="http://www.w3.org/2000/svg">
<path d="M20.8333 0H4.16667C3.0616 0 2.00179 0.421427 1.22039 1.17157C0.438987 1.92172 0 2.93913 0 4V28C0 29.0609 0.438987 30.0783 1.22039 30.8284C2.00179 31.5786 3.0616 32 4.16667 32H20.8333C21.9384 32 22.9982 31.5786 23.7796 30.8284C24.561 30.0783 25 29.0609 25 28V4C25 2.93913 24.561 1.92172 23.7796 1.17157C22.9982 0.421427 21.9384 0 20.8333 0ZM6.25 8H18.75C19.0263 8 19.2912 8.10536 19.4866 8.29289C19.6819 8.48043 19.7917 8.73478 19.7917 9C19.7917 9.26522 19.6819 9.51957 19.4866 9.70711C19.2912 9.89464 19.0263 10 18.75 10H6.25C5.97373 10 5.70878 9.89464 5.51343 9.70711C5.31808 9.51957 5.20833 9.26522 5.20833 9C5.20833 8.73478 5.31808 8.48043 5.51343 8.29289C5.70878 8.10536 5.97373 8 6.25 8ZM5.20833 13C5.20833 12.7348 5.31808 12.4804 5.51343 12.2929C5.70878 12.1054 5.97373 12 6.25 12H18.75C19.0263 12 19.2912 12.1054 19.4866 12.2929C19.6819 12.4804 19.7917 12.7348 19.7917 13C19.7917 13.2652 19.6819 13.5196 19.4866 13.7071C19.2912 13.8946 19.0263 14 18.75 14H6.25C5.97373 14 5.70878 13.8946 5.51343 13.7071C5.31808 13.5196 5.20833 13.2652 5.20833 13ZM6.25 16H18.75C19.0263 16 19.2912 16.1054 19.4866 16.2929C19.6819 16.4804 19.7917 16.7348 19.7917 17C19.7917 17.2652 19.6819 17.5196 19.4866 17.7071C19.2912 17.8946 19.0263 18 18.75 18H6.25C5.97373 18 5.70878 17.8946 5.51343 17.7071C5.31808 17.5196 5.20833 17.2652 5.20833 17C5.20833 16.7348 5.31808 16.4804 5.51343 16.2929C5.70878 16.1054 5.97373 16 6.25 16ZM6.25 20H12.5C12.7763 20 13.0412 20.1054 13.2366 20.2929C13.4319 20.4804 13.5417 20.7348 13.5417 21C13.5417 21.2652 13.4319 21.5196 13.2366 21.7071C13.0412 21.8946 12.7763 22 12.5 22H6.25C5.97373 22 5.70878 21.8946 5.51343 21.7071C5.31808 21.5196 5.20833 21.2652 5.20833 21C5.20833 20.7348 5.31808 20.4804 5.51343 20.2929C5.70878 20.1054 5.97373 20 6.25 20Z" fill="#D58936"/>
</svg>
