<svg width="33" height="32" viewBox="0 0 33 32" fill="none" xmlns="http://www.w3.org/2000/svg">
<path fill-rule="evenodd" clip-rule="evenodd" d="M3.88866 1.02039C4.24954 0.670949 4.68287 0.399875 5.15994 0.225131C5.63701 0.0503863 6.14693 -0.0240391 6.65591 0.00678674C7.16489 0.0376126 7.6613 0.172986 8.11225 0.403935C8.56319 0.634885 8.95838 0.956137 9.27162 1.3464L12.9737 5.95861C13.6522 6.80465 13.8915 7.9067 13.6234 8.94675L12.4952 13.327C12.4373 13.5538 12.4406 13.7914 12.5049 14.0166C12.5692 14.2419 12.6923 14.4473 12.8623 14.613L17.9297 19.5272C18.1008 19.6924 18.3129 19.812 18.5456 19.8744C18.7783 19.9367 19.0237 19.9398 19.2579 19.8833L23.7726 18.7892C24.3019 18.6616 24.8541 18.652 25.3878 18.7611C25.9215 18.8703 26.4227 19.0953 26.8539 19.4192L31.6099 23.0074C33.3196 24.2975 33.4764 26.7476 31.946 28.2296L29.8135 30.2977C28.2873 31.7778 26.0062 32.4278 23.8798 31.7018C18.4364 29.8469 13.4945 26.8251 9.42218 22.8614C5.3352 18.9127 2.21923 14.1209 0.306212 8.84275C-0.44039 6.78265 0.229902 4.56855 1.7561 3.08848L3.88866 1.02039Z" fill="#D58936"/>
</svg>
